<mxfile host="65bd71144e">
    <diagram id="kgpKYQtTHZ0yAKxKKP6v" name="Page-1">
        <mxGraphModel dx="593" dy="455" grid="1" gridSize="10" guides="1" tooltips="1" connect="1" arrows="1" fold="1" page="1" pageScale="1" pageWidth="850" pageHeight="1100" math="1" shadow="0">
            <root>
                <mxCell id="0"/>
                <mxCell id="1" parent="0"/>
                <mxCell id="3nuBFxr9cyL0pnOWT2aG-1" value=":Sensor" style="shape=umlLifeline;perimeter=lifelinePerimeter;container=1;collapsible=0;recursiveResize=0;rounded=0;shadow=0;strokeWidth=1;" parent="1" vertex="1">
                    <mxGeometry x="160" y="80" width="80" height="300" as="geometry"/>
                </mxCell>
                <mxCell id="3nuBFxr9cyL0pnOWT2aG-2" value="" style="points=[];perimeter=orthogonalPerimeter;rounded=0;shadow=0;strokeWidth=1;" parent="3nuBFxr9cyL0pnOWT2aG-1" vertex="1">
                    <mxGeometry x="35" y="80" width="10" height="40" as="geometry"/>
                </mxCell>
                <mxCell id="33" value="" style="points=[];perimeter=orthogonalPerimeter;rounded=0;shadow=0;strokeWidth=1;fillColor=rgb(24, 20, 29);" parent="3nuBFxr9cyL0pnOWT2aG-1" vertex="1">
                    <mxGeometry x="35" y="200" width="10" height="40" as="geometry"/>
                </mxCell>
                <mxCell id="3nuBFxr9cyL0pnOWT2aG-5" value=":Server" style="shape=umlLifeline;perimeter=lifelinePerimeter;container=1;collapsible=0;recursiveResize=0;rounded=0;shadow=0;strokeWidth=1;" parent="1" vertex="1">
                    <mxGeometry x="320" y="80" width="80" height="300" as="geometry"/>
                </mxCell>
                <mxCell id="36" style="edgeStyle=none;html=1;dashed=1;" parent="3nuBFxr9cyL0pnOWT2aG-5" source="3nuBFxr9cyL0pnOWT2aG-6" target="3nuBFxr9cyL0pnOWT2aG-5" edge="1">
                    <mxGeometry relative="1" as="geometry"/>
                </mxCell>
                <mxCell id="3nuBFxr9cyL0pnOWT2aG-6" value="" style="points=[];perimeter=orthogonalPerimeter;rounded=0;shadow=0;strokeWidth=1;" parent="3nuBFxr9cyL0pnOWT2aG-5" vertex="1">
                    <mxGeometry x="35" y="80" width="10" height="100" as="geometry"/>
                </mxCell>
                <mxCell id="31" value="" style="points=[];perimeter=orthogonalPerimeter;rounded=0;shadow=0;strokeWidth=1;fillColor=rgb(24, 20, 29);" parent="3nuBFxr9cyL0pnOWT2aG-5" vertex="1">
                    <mxGeometry x="35" y="200" width="10" height="40" as="geometry"/>
                </mxCell>
                <mxCell id="3nuBFxr9cyL0pnOWT2aG-8" value="POST_Data" style="verticalAlign=bottom;endArrow=block;entryX=0;entryY=0;shadow=0;strokeWidth=1;" parent="1" source="3nuBFxr9cyL0pnOWT2aG-2" target="3nuBFxr9cyL0pnOWT2aG-6" edge="1">
                    <mxGeometry x="0.0023" relative="1" as="geometry">
                        <mxPoint x="275" y="160" as="sourcePoint"/>
                        <mxPoint as="offset"/>
                        <Array as="points">
                            <mxPoint x="220" y="160"/>
                        </Array>
                    </mxGeometry>
                </mxCell>
                <mxCell id="2" value=":Database" style="shape=umlLifeline;perimeter=lifelinePerimeter;container=1;collapsible=0;recursiveResize=0;rounded=0;shadow=0;strokeWidth=1;" parent="1" vertex="1">
                    <mxGeometry x="480" y="80" width="80" height="300" as="geometry"/>
                </mxCell>
                <mxCell id="3" value="" style="points=[];perimeter=orthogonalPerimeter;rounded=0;shadow=0;strokeWidth=1;" parent="2" vertex="1">
                    <mxGeometry x="35" y="80" width="10" height="80" as="geometry"/>
                </mxCell>
                <mxCell id="17" value=":UI" style="shape=umlLifeline;perimeter=lifelinePerimeter;container=1;collapsible=0;recursiveResize=0;rounded=0;shadow=0;strokeWidth=1;" parent="1" vertex="1">
                    <mxGeometry x="640" y="80" width="80" height="300" as="geometry"/>
                </mxCell>
                <mxCell id="18" value="" style="points=[];perimeter=orthogonalPerimeter;rounded=0;shadow=0;strokeWidth=1;" parent="17" vertex="1">
                    <mxGeometry x="35" y="80" width="10" height="160" as="geometry"/>
                </mxCell>
                <mxCell id="21" value="istVorhand(id)" style="edgeStyle=none;html=1;entryX=0.021;entryY=0.253;entryDx=0;entryDy=0;entryPerimeter=0;" parent="1" edge="1">
                    <mxGeometry relative="1" as="geometry">
                        <mxPoint x="365" y="171.65000000000003" as="sourcePoint"/>
                        <mxPoint x="515.21" y="171.65000000000003" as="targetPoint"/>
                    </mxGeometry>
                </mxCell>
                <mxCell id="22" value="return" style="edgeStyle=none;html=1;dashed=1;entryX=0.908;entryY=0.332;entryDx=0;entryDy=0;entryPerimeter=0;" parent="1" edge="1">
                    <mxGeometry relative="1" as="geometry">
                        <mxPoint x="515" y="188.92000000000002" as="sourcePoint"/>
                        <mxPoint x="364.0799999999999" y="188.92000000000002" as="targetPoint"/>
                    </mxGeometry>
                </mxCell>
                <mxCell id="26" value="alt" style="shape=umlFrame;tabWidth=110;tabHeight=30;tabPosition=left;html=1;boundedLbl=1;labelInHeader=1;width=65;height=15;" parent="1" vertex="1">
                    <mxGeometry x="122" y="140" width="438" height="190" as="geometry"/>
                </mxCell>
                <mxCell id="27" value="if is valid" style="text" parent="26" vertex="1">
                    <mxGeometry width="100" height="20" relative="1" as="geometry">
                        <mxPoint x="18" y="20" as="offset"/>
                    </mxGeometry>
                </mxCell>
                <mxCell id="28" value="[else]" style="line;strokeWidth=1;dashed=1;labelPosition=center;verticalLabelPosition=bottom;align=left;verticalAlign=top;spacingLeft=20;spacingTop=15;" parent="26" vertex="1">
                    <mxGeometry y="128.013986013986" width="438.00000000000006" height="7.599999999999998" as="geometry"/>
                </mxCell>
                <mxCell id="30" value="OK" style="edgeStyle=none;html=1;dashed=1;entryX=0.919;entryY=1.029;entryDx=0;entryDy=0;entryPerimeter=0;" parent="1" source="3nuBFxr9cyL0pnOWT2aG-6" target="3nuBFxr9cyL0pnOWT2aG-2" edge="1">
                    <mxGeometry relative="1" as="geometry">
                        <Array as="points">
                            <mxPoint x="310" y="200"/>
                        </Array>
                    </mxGeometry>
                </mxCell>
                <mxCell id="35" value="unknown sensor" style="edgeStyle=none;html=1;dashed=1;" parent="1" source="31" target="33" edge="1">
                    <mxGeometry relative="1" as="geometry"/>
                </mxCell>
                <mxCell id="37" value="show Data" style="edgeStyle=none;html=1;entryX=0.009;entryY=0.366;entryDx=0;entryDy=0;entryPerimeter=0;" parent="1" edge="1">
                    <mxGeometry relative="1" as="geometry">
                        <mxPoint x="365" y="260" as="sourcePoint"/>
                        <mxPoint x="675.0899999999999" y="259.56000000000006" as="targetPoint"/>
                    </mxGeometry>
                </mxCell>
                <mxCell id="39" value="saveData" style="edgeStyle=none;html=1;" parent="1" edge="1">
                    <mxGeometry relative="1" as="geometry">
                        <mxPoint x="365" y="221" as="sourcePoint"/>
                        <mxPoint x="515" y="221" as="targetPoint"/>
                    </mxGeometry>
                </mxCell>
                <mxCell id="40" value="respons" style="edgeStyle=none;html=1;entryX=0.908;entryY=0.626;entryDx=0;entryDy=0;entryPerimeter=0;dashed=1;" parent="1" edge="1">
                    <mxGeometry relative="1" as="geometry">
                        <mxPoint x="515" y="239.56000000000006" as="sourcePoint"/>
                        <mxPoint x="364.0799999999999" y="239.56000000000006" as="targetPoint"/>
                    </mxGeometry>
                </mxCell>
                <mxCell id="41" value="" style="group;dropTarget=0;pointerEvents=0;" parent="1" vertex="1">
                    <mxGeometry x="70" width="640" height="45" as="geometry"/>
                </mxCell>
                <UserObject label="Sensor :PostData" lucidchartObjectId="xs.zbXxAc2O0" id="42">
                    <mxCell style="points=[[0.318,0.967,0],[0.693,0.967,0]];html=1;overflow=block;blockSpacing=1;whiteSpace=wrap;fontSize=19.7;fontColor=#a9afb8;fontStyle=1;align=center;spacingLeft=7;spacingRight=7;spacingTop=2;spacing=3;strokeOpacity=0;fillOpacity=0;rounded=1;absoluteArcSize=1;arcSize=12;fillColor=#ffffff;strokeWidth=1.5;" parent="41" vertex="1">
                        <mxGeometry width="640" height="31" as="geometry"/>
                    </mxCell>
                </UserObject>
                <UserObject label="Aland Mariwan  |  %date{mmmm d, yyyy}%" placeholders="1" lucidchartObjectId="xs.z2XKQA_yW" id="43">
                    <mxCell style="html=1;overflow=block;blockSpacing=1;whiteSpace=wrap;fontSize=11.5;fontColor=#a9afb8;align=center;spacingLeft=7;spacingRight=7;spacingTop=2;spacing=3;strokeOpacity=0;fillOpacity=0;rounded=1;absoluteArcSize=1;arcSize=12;fillColor=#ffffff;strokeWidth=1.5;" parent="41" vertex="1">
                        <mxGeometry y="31" width="640" height="14" as="geometry"/>
                    </mxCell>
                </UserObject>
                <UserObject label="" lucidchartObjectId="xs.zP2.pqnG-" id="44">
                    <mxCell style="html=1;jettySize=18;whiteSpace=wrap;fontSize=13;fontFamily=Helvetica;strokeColor=#a9afb8;strokeOpacity=100;strokeWidth=1.5;rounded=0;startArrow=none;endArrow=none;" parent="41" edge="1">
                        <mxGeometry width="100" height="100" relative="1" as="geometry">
                            <Array as="points">
                                <mxPoint x="203" y="50" generated="1"/>
                                <mxPoint x="444" y="50" generated="1"/>
                            </Array>
                            <mxPoint x="200" y="50" as="sourcePoint"/>
                            <mxPoint x="444" y="50" as="targetPoint"/>
                        </mxGeometry>
                    </mxCell>
                </UserObject>
                <mxCell id="45" value=":Sensor" style="shape=umlLifeline;perimeter=lifelinePerimeter;container=1;collapsible=0;recursiveResize=0;rounded=0;shadow=0;strokeWidth=1;" vertex="1" parent="1">
                    <mxGeometry x="160" y="560" width="80" height="300" as="geometry"/>
                </mxCell>
                <mxCell id="46" value="" style="points=[];perimeter=orthogonalPerimeter;rounded=0;shadow=0;strokeWidth=1;" vertex="1" parent="45">
                    <mxGeometry x="35" y="80" width="10" height="40" as="geometry"/>
                </mxCell>
                <mxCell id="48" value=":Server" style="shape=umlLifeline;perimeter=lifelinePerimeter;container=1;collapsible=0;recursiveResize=0;rounded=0;shadow=0;strokeWidth=1;" vertex="1" parent="1">
                    <mxGeometry x="480" y="560" width="80" height="300" as="geometry"/>
                </mxCell>
                <mxCell id="49" style="edgeStyle=none;html=1;dashed=1;" edge="1" parent="48" source="50" target="48">
                    <mxGeometry relative="1" as="geometry"/>
                </mxCell>
                <mxCell id="50" value="" style="points=[];perimeter=orthogonalPerimeter;rounded=0;shadow=0;strokeWidth=1;" vertex="1" parent="48">
                    <mxGeometry x="35" y="80" width="10" height="40" as="geometry"/>
                </mxCell>
                <mxCell id="104" style="edgeStyle=none;html=1;fontFamily=Helvetica;fontSize=12;fontColor=rgb(240, 240, 240);" edge="1" parent="48" source="99" target="48">
                    <mxGeometry relative="1" as="geometry"/>
                </mxCell>
                <mxCell id="99" value="" style="points=[];perimeter=orthogonalPerimeter;rounded=0;shadow=0;strokeWidth=1;" vertex="1" parent="48">
                    <mxGeometry x="35" y="140" width="10" height="60" as="geometry"/>
                </mxCell>
                <mxCell id="102" value="" style="points=[];perimeter=orthogonalPerimeter;rounded=0;shadow=0;strokeWidth=1;fillColor=rgb(24, 20, 29);" vertex="1" parent="48">
                    <mxGeometry x="27" y="156" width="10" height="30" as="geometry"/>
                </mxCell>
                <mxCell id="105" value="&lt;font style=&quot;font-size: 7px;&quot;&gt;check(formData)&lt;/font&gt;" style="edgeStyle=none;html=1;fontFamily=Helvetica;fontSize=12;fontColor=rgb(240, 240, 240);entryX=-0.132;entryY=0.459;entryDx=0;entryDy=0;entryPerimeter=0;" edge="1" parent="48" source="99" target="102">
                    <mxGeometry x="-0.0173" y="14" relative="1" as="geometry">
                        <mxPoint x="-10" y="150" as="targetPoint"/>
                        <Array as="points">
                            <mxPoint y="150"/>
                            <mxPoint y="170"/>
                        </Array>
                        <mxPoint x="-20" as="offset"/>
                    </mxGeometry>
                </mxCell>
                <mxCell id="53" value=":Database" style="shape=umlLifeline;perimeter=lifelinePerimeter;container=1;collapsible=0;recursiveResize=0;rounded=0;shadow=0;strokeWidth=1;" vertex="1" parent="1">
                    <mxGeometry x="320" y="560" width="80" height="300" as="geometry"/>
                </mxCell>
                <mxCell id="54" value="" style="points=[];perimeter=orthogonalPerimeter;rounded=0;shadow=0;strokeWidth=1;" vertex="1" parent="53">
                    <mxGeometry x="35" y="80" width="10" height="80" as="geometry"/>
                </mxCell>
                <mxCell id="55" value=":UI" style="shape=umlLifeline;perimeter=lifelinePerimeter;container=1;collapsible=0;recursiveResize=0;rounded=0;shadow=0;strokeWidth=1;" vertex="1" parent="1">
                    <mxGeometry x="640" y="560" width="80" height="300" as="geometry"/>
                </mxCell>
                <mxCell id="75" style="edgeStyle=none;html=1;dashed=1;" edge="1" parent="55" source="56" target="55">
                    <mxGeometry relative="1" as="geometry"/>
                </mxCell>
                <mxCell id="76" style="edgeStyle=none;html=1;dashed=1;" edge="1" parent="55" source="56" target="55">
                    <mxGeometry relative="1" as="geometry"/>
                </mxCell>
                <mxCell id="100" style="edgeStyle=none;html=1;fontFamily=Helvetica;fontSize=12;fontColor=rgb(240, 240, 240);" edge="1" parent="55" source="56" target="55">
                    <mxGeometry relative="1" as="geometry"/>
                </mxCell>
                <mxCell id="56" value="" style="points=[];perimeter=orthogonalPerimeter;rounded=0;shadow=0;strokeWidth=1;" vertex="1" parent="55">
                    <mxGeometry x="35" y="80" width="10" height="80" as="geometry"/>
                </mxCell>
                <mxCell id="67" value="" style="group;dropTarget=0;pointerEvents=0;" vertex="1" parent="1">
                    <mxGeometry x="80" y="470" width="640" height="45" as="geometry"/>
                </mxCell>
                <UserObject label="Sensor :Register" lucidchartObjectId="xs.zbXxAc2O0" id="68">
                    <mxCell style="points=[[0.318,0.967,0],[0.693,0.967,0]];html=1;overflow=block;blockSpacing=1;whiteSpace=wrap;fontSize=19.7;fontColor=#a9afb8;fontStyle=1;align=center;spacingLeft=7;spacingRight=7;spacingTop=2;spacing=3;strokeOpacity=0;fillOpacity=0;rounded=1;absoluteArcSize=1;arcSize=12;fillColor=#ffffff;strokeWidth=1.5;" vertex="1" parent="67">
                        <mxGeometry width="640" height="31" as="geometry"/>
                    </mxCell>
                </UserObject>
                <UserObject label="Aland Mariwan  |  %date{mmmm d, yyyy}%" placeholders="1" lucidchartObjectId="xs.z2XKQA_yW" id="69">
                    <mxCell style="html=1;overflow=block;blockSpacing=1;whiteSpace=wrap;fontSize=11.5;fontColor=#a9afb8;align=center;spacingLeft=7;spacingRight=7;spacingTop=2;spacing=3;strokeOpacity=0;fillOpacity=0;rounded=1;absoluteArcSize=1;arcSize=12;fillColor=#ffffff;strokeWidth=1.5;" vertex="1" parent="67">
                        <mxGeometry y="31" width="640" height="14" as="geometry"/>
                    </mxCell>
                </UserObject>
                <UserObject label="" lucidchartObjectId="xs.zP2.pqnG-" id="70">
                    <mxCell style="html=1;jettySize=18;whiteSpace=wrap;fontSize=13;fontFamily=Helvetica;strokeColor=#a9afb8;strokeOpacity=100;strokeWidth=1.5;rounded=0;startArrow=none;endArrow=none;" edge="1" parent="67">
                        <mxGeometry width="100" height="100" relative="1" as="geometry">
                            <Array as="points">
                                <mxPoint x="203" y="50" generated="1"/>
                                <mxPoint x="444" y="50" generated="1"/>
                            </Array>
                            <mxPoint x="200" y="50" as="sourcePoint"/>
                            <mxPoint x="444" y="50" as="targetPoint"/>
                        </mxGeometry>
                    </mxCell>
                </UserObject>
                <mxCell id="71" style="edgeStyle=none;html=1;entryX=1.011;entryY=0.012;entryDx=0;entryDy=0;entryPerimeter=0;" edge="1" parent="1" source="56" target="50">
                    <mxGeometry relative="1" as="geometry"/>
                </mxCell>
                <mxCell id="72" value="addNewSensor(type)" style="edgeLabel;html=1;align=center;verticalAlign=middle;resizable=0;points=[];" vertex="1" connectable="0" parent="71">
                    <mxGeometry x="0.1195" y="-2" relative="1" as="geometry">
                        <mxPoint x="10" as="offset"/>
                    </mxGeometry>
                </mxCell>
                <mxCell id="73" style="edgeStyle=none;html=1;entryX=0.154;entryY=0.122;entryDx=0;entryDy=0;entryPerimeter=0;dashed=1;" edge="1" parent="1">
                    <mxGeometry relative="1" as="geometry">
                        <mxPoint x="525" y="679.8799999999999" as="sourcePoint"/>
                        <mxPoint x="676.54" y="679.8799999999999" as="targetPoint"/>
                    </mxGeometry>
                </mxCell>
                <mxCell id="74" value="formData" style="edgeLabel;html=1;align=center;verticalAlign=middle;resizable=0;points=[];" vertex="1" connectable="0" parent="73">
                    <mxGeometry x="0.1237" y="-1" relative="1" as="geometry">
                        <mxPoint as="offset"/>
                    </mxGeometry>
                </mxCell>
                <mxCell id="101" value="send formData" style="edgeStyle=none;html=1;fontFamily=Helvetica;fontSize=12;fontColor=rgb(240, 240, 240);" edge="1" parent="1" source="56" target="99">
                    <mxGeometry relative="1" as="geometry"/>
                </mxCell>
            </root>
        </mxGraphModel>
    </diagram>
</mxfile>
